<?xml version="1.0" encoding="UTF-8" standalone="no"?>
<!-- Created with Inkscape (http://www.inkscape.org/) -->

<svg
   id="svg2"
   version="1.1"
   width="86.702003"
   height="99.127998"
   viewBox="0 0 86.702003 99.127996"
   xmlns="http://www.w3.org/2000/svg"
   xmlns:svg="http://www.w3.org/2000/svg"
   xmlns:rdf="http://www.w3.org/1999/02/22-rdf-syntax-ns#"
   xmlns:cc="http://creativecommons.org/ns#"
   xmlns:dc="http://purl.org/dc/elements/1.1/">
  <metadata
     id="metadata8">
    <rdf:RDF>
      <cc:Work
         rdf:about="">
        <dc:format>image/svg+xml</dc:format>
        <dc:type
           rdf:resource="http://purl.org/dc/dcmitype/StillImage" />
      </cc:Work>
    </rdf:RDF>
  </metadata>
  <defs
     id="defs6">
    <clipPath
       id="clipPath23756"
       clipPathUnits="userSpaceOnUse">
      <rect
         id="rect23758"
         style="color:#ffffff;fill:#bebebe"
         rx="0"
         ry="0"
         height="16"
         width="16"
         y="876.35999"
         x="312" />
    </clipPath>
  </defs>
  <g
     id="layer1"
     transform="matrix(6.1930339,0,0,6.1930339,-1938.4196,-5427.3271)"
     style="fill:#ffffff;fill-opacity:1">
    <g
       id="layer2"
       transform="translate(229.28,556.07)"
       display="none"
       style="display:none;opacity:0.5;fill:#ffffff;fill-opacity:1">
      <rect
         id="48x48"
         style="color:#ffffff;display:inline;fill:#ffffff;fill-opacity:1"
         height="48"
         width="48"
         display="inline"
         y="4.25"
         x="-2.25" />
      <rect
         id="32x32"
         style="color:#ffffff;display:inline;fill:#ffffff;fill-opacity:1"
         height="32"
         width="32"
         display="inline"
         y="20.25"
         x="53.75" />
      <rect
         id="24x24"
         style="color:#ffffff;display:inline;fill:#ffffff;fill-opacity:1"
         height="24"
         width="24"
         display="inline"
         y="28.25"
         x="93.75" />
      <rect
         id="22x22"
         style="color:#ffffff;display:inline;fill:#ffffff;fill-opacity:1"
         height="22"
         width="22"
         display="inline"
         y="30.25"
         x="125.75" />
    </g>
    <path
       id="rect23745"
       style="color:#ffffff;fill:#ffffff;fill-opacity:1"
       d="m 314,877.36 c -0.554,0 -1,0.446 -1,1 v 10 c 0,0.554 0.446,1 1,1 h 12 c 0.554,0 1,-0.446 1,-1 v -9.9688 c -0.40643,0.49032 -0.79061,0.94173 -1.125,1.3125 -0.30207,0.33494 -0.59509,0.64953 -0.875,0.9375 h -0.0312 c -0.89538,0.949 -2.2626,2.2734 -3.9688,3.7188 0.0719,0.50544 0.0996,1.0384 -0.15625,1.5312 -0.30802,0.59343 -0.90636,1.0625 -1.6562,1.25 -0.64451,0.16115 -1.3707,0.26455 -2.0625,0.21875 -0.34592,-0.0229 -0.68055,-0.0713 -1.0312,-0.21875 -0.3507,-0.1474 -0.8009,-0.47182 -0.9375,-1.0312 a 1.0086,1.0086 0 0 1 0.96875,-1.25 c 0.1948,10e-5 0.2045,-0.0256 0.25,-0.0625 0.0455,-0.0369 0.12405,-0.15195 0.21875,-0.34375 0.18937,-0.3836 0.26039,-1.1475 1.125,-1.7188 0.37715,-0.2491 0.80763,-0.3165 1.2188,-0.3125 1.0056,-1.4324 2.1187,-2.9584 3.3125,-4.2812 -0.001,10e-4 0.0292,-0.0283 0.0312,-0.0312 0.0107,-0.0187 0.0336,-0.0747 0.15625,-0.21875 a 1.0086,1.0086 0 0 1 0.0312,-0.0312 c 0.133,-0.14381 0.2449,-0.21365 0.3125,-0.28125 0.0132,-0.0149 0.0183,-0.017 0.0312,-0.0312 0.0783,-0.086 0.12125,-0.11731 0.1875,-0.1875 h -9 z" />
    <path
       id="path23225"
       style="color:#ffffff;line-height:normal;font-family:Sans;text-indent:0;text-transform:none;fill:#ffffff;fill-opacity:1"
       d="m 314.38,890.36 -0.28125,0.5625 a 1.0063276,1.0063276 0 1 0 1.8125,0.875 L 316.63,890.36 Z m 9,0 0.71875,1.4375 a 1.0063276,1.0063276 0 1 0 1.8125,-0.875 L 325.63,890.36 Z"
       line-height="normal" />
    <path
       id="path9274-5-7"
       d="m 330.03,872.36 c -1.7996,1.2988 -4.1852,3.3121 -6.0938,5.3438 -0.17324,0.18442 -0.36758,0.34657 -0.53125,0.53125 -0.10346,0.10788 -0.20907,0.20067 -0.3125,0.3125 -0.0653,0.0767 -0.12423,0.17347 -0.1875,0.25 -1.3047,1.442 -2.5877,3.1264 -3.6562,4.6875 -0.30993,-0.15117 -0.6844,-0.17668 -1.0938,0.0937 -0.75359,0.49786 -0.60416,2.2818 -2.1562,2.2812 0.14696,0.60185 1.7391,0.58086 2.8125,0.3125 1.0131,-0.25331 1.3178,-1.1327 1.125,-1.875 -0.0273,-0.10506 -0.0928,-0.20745 -0.15625,-0.3125 1.9784,-1.6394 3.4153,-3.0129 4.375,-4.0312 0.2404,-0.24587 0.52201,-0.58075 0.84375,-0.9375 1.2036,-1.3346 2.9132,-3.4268 5.0312,-6.6562 z"
       clip-path="url(#clipPath23756)"
       style="fill:#ffffff;fill-opacity:1" />
  </g>
</svg>
