<?xml version="1.0" encoding="UTF-8" standalone="no"?>
<!-- Created with Inkscape (http://www.inkscape.org/) -->

<svg
   width="18"
   height="32"
   id="svg3832"
   version="1.1"
   xmlns="http://www.w3.org/2000/svg"
   xmlns:svg="http://www.w3.org/2000/svg"
   xmlns:rdf="http://www.w3.org/1999/02/22-rdf-syntax-ns#"
   xmlns:cc="http://creativecommons.org/ns#"
   xmlns:dc="http://purl.org/dc/elements/1.1/">
  <defs
     id="defs3834" />
  <metadata
     id="metadata3837">
    <rdf:RDF>
      <cc:Work
         rdf:about="">
        <dc:format>image/svg+xml</dc:format>
        <dc:type
           rdf:resource="http://purl.org/dc/dcmitype/StillImage" />
        <dc:title />
      </cc:Work>
    </rdf:RDF>
  </metadata>
  <g
     id="layer1"
     transform="translate(-15.3125,-9)">
    <path
       style="display:inline;overflow:visible;visibility:visible;fill:#000000;fill-opacity:1;fill-rule:nonzero;stroke:none;stroke-width:1.00179;marker:none;enable-background:accumulate"
       id="path2317"
       d="M 21,8.9999996 V 15 H 17.8125 L 24,22 30.1875,15 H 27 V 8.9999996 Z M 23.21875,23 c -0.172892,0 -0.28125,0.294922 -0.28125,0.65625 V 25.9375 C 22.24145,26.095996 21.585954,26.379869 21,26.75 l -1.625,-1.625 c -0.255498,-0.255497 -0.533998,-0.372253 -0.65625,-0.25 l -1.53125,1.53125 c -0.122254,0.122254 -0.0055,0.400753 0.25,0.65625 l 1.625,1.625 c -0.37013,0.585953 -0.654003,1.24145 -0.8125,1.9375 h -2.28125 c -0.361328,0 -0.65625,0.108357 -0.65625,0.28125 v 2.1875 c 0,0.172892 0.294922,0.28125 0.65625,0.28125 H 18.25 c 0.158497,0.69605 0.44237,1.351546 0.8125,1.9375 l -1.625,1.625 c -0.255497,0.255498 -0.372254,0.533997 -0.25,0.65625 l 1.53125,1.53125 c 0.122252,0.122254 0.400752,0.0055 0.65625,-0.25 L 21,37.25 c 0.585954,0.37013 1.24145,0.654002 1.9375,0.8125 v 2.28125 C 22.9375,40.705077 23.045858,41 23.21875,41 h 2.1875 c 0.172893,0 0.28125,-0.294924 0.28125,-0.65625 V 38.0625 c 0.69605,-0.158498 1.351546,-0.44237 1.9375,-0.8125 l 1.625,1.625 c 0.255498,0.255497 0.533997,0.372254 0.65625,0.25 l 1.53125,-1.53125 c 0.122254,-0.122252 0.0055,-0.400752 -0.25,-0.65625 l -1.625,-1.625 c 0.370129,-0.585954 0.654003,-1.24145 0.8125,-1.9375 h 2.28125 c 0.361329,0 0.65625,-0.108358 0.65625,-0.28125 v -2.1875 c 0,-0.172893 -0.294921,-0.28125 -0.65625,-0.28125 H 30.375 c -0.158497,-0.69605 -0.442371,-1.351547 -0.8125,-1.9375 l 1.625,-1.625 c 0.255497,-0.255497 0.372254,-0.533997 0.25,-0.65625 L 29.90625,24.875 C 29.783997,24.752745 29.505498,24.8695 29.25,25.125 L 27.625,26.75 C 27.039046,26.379869 26.38355,26.095996 25.6875,25.9375 V 23.65625 C 25.6875,23.294922 25.579143,23 25.40625,23 Z m 1.09375,6.21875 c 1.528616,0 2.78125,1.252635 2.78125,2.78125 0,1.528615 -1.252634,2.78125 -2.78125,2.78125 -1.528614,0 -2.78125,-1.252635 -2.78125,-2.78125 0,-1.528615 1.252636,-2.78125 2.78125,-2.78125 z" />
  </g>
</svg>
