<?xml version="1.0" encoding="UTF-8" standalone="no"?>
<!-- Generator: Adobe Illustrator 18.0.0, SVG Export Plug-In . SVG Version: 6.00 Build 0)  -->

<svg
   version="1.0"
   id="Layer_1"
   x="0px"
   y="0px"
   viewBox="0 0 31.699216 28.400391"
   enable-background="new 0 0 31.7 28.4"
   xml:space="preserve"
   width="31.699219"
   height="28.400391"
   xmlns="http://www.w3.org/2000/svg"
   xmlns:svg="http://www.w3.org/2000/svg"><defs
   id="defs10" />
<g
   id="g10">
	<path
   id="polygon1"
   d="M 0,0 1.9003906,4.1992188 0,7.5 1.9003906,10.800781 0,14.099609 1.9003906,17.300781 0,20.599609 1.9003906,23.900391 0,28.400391 3.6992188,27.199219 h 2 21.9003902 l 4.09961,1.201172 L 29,23.599609 l 1.5,-2.5 -2.900391,-3 V 6.9003906 1 H 8.5 5.6992188 h -2 z m 14.681641,7.4550781 c 0.585096,0.00298 1.193361,0.1113287 1.818359,0.3457031 2.599994,0.9999981 1.699215,3.6988318 0.199219,5.2988278 -0.5,0.5 -1.598828,0.300778 -0.798828,-1.199218 0.299998,-0.6 0.599216,-1.79961 -0.300782,-2.0996098 C 13.599613,9.1007827 11.300781,10.700785 10.800781,12.800781 10.300783,14.600777 11.600395,16.5 13.900391,16 c 1.899996,-0.4 3.700392,-1.700783 4.40039,-2.300781 0.7,-0.6 1.198436,0.501174 0.398438,1.701172 -0.899998,1.199996 -2.300002,2.600392 -3.5,3.40039 C 10.499227,22.000775 6.3996128,17.79999 8.0996094,13 9.0277324,10.468756 11.522116,7.4390106 14.681641,7.4550781 Z m 8.164062,2.6933599 a 1.0999895,1.5999847 44.991897 0 1 0.708985,0.240234 1.0999895,1.5999847 44.991897 0 1 -0.353516,1.908203 1.0999895,1.5999847 44.991897 0 1 -1.910156,0.353516 1.0999895,1.5999847 44.991897 0 1 0.353515,-1.908203 1.0999895,1.5999847 44.991897 0 1 1.201172,-0.59375 z m -0.552734,4.271484 A 1.0999895,1.5999847 44.991897 0 1 23,14.658203 a 1.0999895,1.5999847 44.991897 0 1 -0.353516,1.910156 1.0999895,1.5999847 44.991897 0 1 -1.908203,0.353516 1.0999895,1.5999847 44.991897 0 1 0.353516,-1.908203 1.0999895,1.5999847 44.991897 0 1 1.201172,-0.59375 z" />
	
	
	
	
	
	
	
</g>
</svg>
