<?xml version="1.0" encoding="UTF-8" standalone="no"?>
<svg
   width="61.50721"
   height="59.105053"
   version="1.1"
   id="svg10"
   xmlns="http://www.w3.org/2000/svg"
   xmlns:svg="http://www.w3.org/2000/svg">
  <defs
     id="defs10" />
  <g
     transform="matrix(0.89089,0,0,0.89089,-2448.3413,-532.7746)"
     stroke-width="1.1225"
     id="g10">
    <g
       transform="matrix(1.7388,0,0,1.7388,2471.7,448.13)"
       stroke-width="2.4398"
       id="g8"
       style="display:none">
      <g
         stroke-width="6.4554"
         aria-label="Flathub"
         id="g7">
        <path
           d="m 211.36,114.14 h 3.3045 v -7.7491 h 7.5798 v -2.7701 h -7.5798 v -4.9523 h 8.3815 V 95.8984 H 211.36 Z"
           id="path1" />
        <path
           d="m 229.13,95.901 h -3.2243 v 18.242 h 3.2243 z"
           id="path2" />
        <path
           d="m 236.38,114.42 c 2.1466,0 3.4292,-1.0065 4.017,-2.1555 h 0.10689 v 1.8794 h 3.0996 v -9.1564 c 0,-3.6162 -2.9482,-4.7029 -5.558,-4.7029 -2.877,0 -5.0859,1.2826 -5.7985,3.7766 l 3.0106,0.42754 c 0.32065,-0.93524 1.2292,-1.7369 2.8057,-1.7369 1.4964,0 2.3158,0.766 2.3158,2.111 v 0.0534 c 0,0.92633 -0.97086,0.97086 -3.3847,1.2292 -2.6543,0.28502 -5.1928,1.0777 -5.1928,4.1596 0,2.6899 1.9684,4.115 4.5782,4.115 z m 0.83725,-2.3693 c -1.345,0 -2.3069,-0.61459 -2.3069,-1.7992 0,-1.2381 1.0778,-1.7547 2.5207,-1.9595 0.84617,-0.11579 2.5385,-0.32956 2.9571,-0.66802 v 1.6122 c 0,1.5231 -1.2292,2.8146 -3.1709,2.8146 z"
           id="path3" />
        <path
           d="m 253.69,100.46 h -2.6988 v -3.2778 h -3.2243 v 3.2778 h -1.9417 v 2.494 h 1.9417 v 7.6066 c -0.0178,2.5741 1.8526,3.8389 4.2754,3.7677 0.91742,-0.0267 1.5498,-0.20486 1.8972,-0.32066 l -0.54333,-2.5207 c -0.17814,0.0445 -0.54333,0.1247 -0.94414,0.1247 -0.81054,0 -1.4608,-0.28502 -1.4608,-1.5854 v -7.0722 h 2.6988 z"
           id="path4" />
        <path
           d="m 259.9,106.13 c 0,-1.9774 1.2292,-3.1174 2.9571,-3.1174 1.6923,0 2.6899,1.0778 2.6899,2.9215 v 8.2122 h 3.2243 v -8.711 c 0,-3.3045 -1.8705,-5.1482 -4.7118,-5.1482 -2.1021,0 -3.4381,0.95305 -4.0705,2.5029 h -0.16033 v -6.8851 h -3.1531 v 18.242 h 3.2243 z"
           id="path5" />
        <path
           d="m 280.77,108.39 c 0,2.0842 -1.4875,3.1174 -2.9126,3.1174 -1.5498,0 -2.583,-1.0956 -2.583,-2.8324 v -8.2122 h -3.2243 v 8.711 c 0,3.2867 1.8705,5.1482 4.5604,5.1482 2.0486,0 3.4915,-1.0778 4.115,-2.6098 h 0.14251 v 2.4316 h 3.1264 v -13.681 h -3.2243 z"
           id="path6" />
        <path
           d="m 287.45,114.14 h 3.1709 v -2.1555 h 0.18704 c 0.5077,0.99758 1.5676,2.396 3.9191,2.396 3.2243,0 5.6381,-2.5563 5.6381,-7.0632 0,-4.5604 -2.485,-7.0365 -5.647,-7.0365 -2.4138,0 -3.4203,1.4518 -3.9102,2.4405 h -0.1336 v -6.8228 h -3.2243 z m 3.162,-6.8406 c 0,-2.6543 1.1401,-4.3733 3.2154,-4.3733 2.1466,0 3.251,1.8259 3.251,4.3733 0,2.5652 -1.1223,4.4357 -3.251,4.4357 -2.0575,0 -3.2154,-1.7814 -3.2154,-4.4357 z"
           id="path7" />
      </g>
    </g>
    <g
       transform="matrix(1.7622,0,0,1.7622,2470.4,445.42)"
       id="g9">
      <circle
         cx="166.69"
         cy="95.647003"
         r="9.0478001"
         stroke-width="0.63698"
         id="circle8" />
      <rect
         x="158.75"
         y="108.33"
         width="15.875"
         height="15.875"
         rx="4.2333002"
         ry="4.2333002"
         stroke-width="0.63698"
         id="rect8" />
      <path
         transform="matrix(0.91132,0.52615,0.52615,-0.91132,101.23,110.53)"
         d="m 69.514,58.833 h -1.7806 -10.247 a 2.4441,2.4441 60 0 1 -2.1167,-3.6662 l 6.0139,-10.416 a 2.4441,2.4441 2.522e-7 0 1 4.2333,0 l 6.0139,10.416 a 2.4441,2.4441 120 0 1 -2.1167,3.6662 z"
         stroke-width="0.60953"
         id="path8" />
      <path
         transform="rotate(90)"
         d="m 116.31,-194.99 c 0.87946,0 1.5875,0.70801 1.5875,1.5875 v 12.7 c 0,0.87946 -0.70802,1.5875 -1.5875,1.5875 -0.87948,0 -1.5875,-0.70802 -1.5875,-1.5875 v -12.7 c 0,-0.87946 0.70801,-1.5875 1.5875,-1.5875 z m -7.9375,7.9375 c 0,-0.87946 0.70802,-1.5875 1.5875,-1.5875 h 12.7 c 0.87946,0 1.5875,0.70802 1.5875,1.5875 0,0.87947 -0.70802,1.5875 -1.5875,1.5875 h -12.7 c -0.87947,0 -1.5875,-0.70802 -1.5875,-1.5875 z"
         stroke-width="6.3698"
         id="path9" />
    </g>
  </g>
</svg>
